<?xml version="1.0" encoding="UTF-8"?><svg xmlns="http://www.w3.org/2000/svg" xmlns:xlink="http://www.w3.org/1999/xlink" fill-opacity="1" color-rendering="auto" color-interpolation="auto" text-rendering="auto" stroke="black" stroke-linecap="square" width="1031" stroke-miterlimit="10" shape-rendering="auto" stroke-opacity="1" fill="black" stroke-dasharray="none" font-weight="normal" stroke-width="1" height="772" font-family="'Dialog'" font-style="normal" stroke-linejoin="miter" font-size="12px" stroke-dashoffset="0" image-rendering="auto">
  <!--Generated by ySVG 2.5-->
  <defs id="genericDefs"/>
  <g>
    <defs id="defs1">
      <clipPath clipPathUnits="userSpaceOnUse" id="clipPath1">
        <path d="M0 0 L1031 0 L1031 772 L0 772 L0 0 Z"/>
      </clipPath>
      <clipPath clipPathUnits="userSpaceOnUse" id="clipPath2">
        <path d="M-260 177 L771 177 L771 949 L-260 949 L-260 177 Z"/>
      </clipPath>
    </defs>
    <g fill="white" text-rendering="geometricPrecision" shape-rendering="geometricPrecision" transform="translate(260,-177)" stroke="white">
      <rect x="-260" width="1031" height="772" y="177" clip-path="url(#clipPath2)" stroke="none"/>
    </g>
    <g fill="rgb(221,27,22)" text-rendering="geometricPrecision" shape-rendering="geometricPrecision" transform="matrix(1,0,0,1,260,-177)" stroke="rgb(221,27,22)">
      <circle r="251.4" clip-path="url(#clipPath2)" cx="275.944" cy="681.993" stroke="none"/>
    </g>
    <g font-size="24px" stroke-linecap="butt" transform="matrix(1,0,0,1,260,-177)" text-rendering="geometricPrecision" font-family="sans-serif" shape-rendering="geometricPrecision" stroke-miterlimit="1.45">
      <text x="235.9303" xml:space="preserve" y="483.0207" clip-path="url(#clipPath2)" stroke="none">Service</text>
      <circle fill="none" r="251.4" clip-path="url(#clipPath2)" cx="275.944" cy="681.993"/>
    </g>
    <g fill="rgb(136,146,191)" text-rendering="geometricPrecision" shape-rendering="geometricPrecision" transform="matrix(1,0,0,1,260,-177)" stroke="rgb(136,146,191)">
      <circle r="169.112" clip-path="url(#clipPath2)" cx="275.944" cy="677.64" stroke="none"/>
    </g>
    <g font-size="24px" stroke-linecap="butt" transform="matrix(1,0,0,1,260,-177)" text-rendering="geometricPrecision" font-family="sans-serif" shape-rendering="geometricPrecision" stroke-miterlimit="1.45">
      <text x="199.2091" xml:space="preserve" y="564.4927" clip-path="url(#clipPath2)" stroke="none">REST Endpoint</text>
      <circle fill="none" r="169.112" clip-path="url(#clipPath2)" cx="275.944" cy="677.64"/>
    </g>
    <g fill="rgb(79,91,147)" text-rendering="geometricPrecision" shape-rendering="geometricPrecision" transform="matrix(1,0,0,1,260,-177)" stroke="rgb(79,91,147)">
      <circle r="96.92" clip-path="url(#clipPath2)" cx="275.944" cy="677.64" stroke="none"/>
    </g>
    <g font-size="48px" stroke-linecap="butt" transform="matrix(1,0,0,1,260,-177)" text-rendering="geometricPrecision" font-family="sans-serif" shape-rendering="geometricPrecision" stroke-miterlimit="1.45">
      <text x="226.5963" xml:space="preserve" y="696.4955" clip-path="url(#clipPath2)" stroke="none">PHP</text>
      <circle fill="none" r="96.92" clip-path="url(#clipPath2)" cx="275.944" cy="677.64"/>
    </g>
    <g fill="rgb(221,27,22)" text-rendering="geometricPrecision" shape-rendering="geometricPrecision" transform="matrix(1,0,0,1,260,-177)" stroke="rgb(221,27,22)">
      <ellipse rx="83" ry="33.5" clip-path="url(#clipPath2)" cx="275.944" cy="316.5" stroke="none"/>
    </g>
    <g font-size="24px" stroke-linecap="butt" transform="matrix(1,0,0,1,260,-177)" text-rendering="geometricPrecision" font-family="sans-serif" shape-rendering="geometricPrecision" stroke-miterlimit="1.45">
      <text x="223.9245" xml:space="preserve" y="325.9277" clip-path="url(#clipPath2)" stroke="none">Controller</text>
      <ellipse rx="83" fill="none" ry="33.5" clip-path="url(#clipPath2)" cx="275.944" cy="316.5"/>
    </g>
    <g fill="rgb(221,27,22)" text-rendering="geometricPrecision" shape-rendering="geometricPrecision" transform="matrix(1,0,0,1,260,-177)" stroke="rgb(221,27,22)">
      <ellipse rx="83" ry="33.5" clip-path="url(#clipPath2)" cx="616.632" cy="316.5" stroke="none"/>
    </g>
    <g font-size="24px" stroke-linecap="butt" transform="matrix(1,0,0,1,260,-177)" text-rendering="geometricPrecision" font-family="sans-serif" shape-rendering="geometricPrecision" stroke-miterlimit="1.45">
      <text x="564.6125" xml:space="preserve" y="325.9277" clip-path="url(#clipPath2)" stroke="none">Controller</text>
      <ellipse rx="83" fill="none" ry="33.5" clip-path="url(#clipPath2)" cx="616.632" cy="316.5"/>
    </g>
    <g fill="rgb(221,27,22)" text-rendering="geometricPrecision" shape-rendering="geometricPrecision" transform="matrix(1,0,0,1,260,-177)" stroke="rgb(221,27,22)">
      <ellipse rx="83" ry="33.5" clip-path="url(#clipPath2)" cx="-87.456" cy="316.5" stroke="none"/>
    </g>
    <g font-size="24px" stroke-linecap="butt" transform="matrix(1,0,0,1,260,-177)" text-rendering="geometricPrecision" font-family="sans-serif" shape-rendering="geometricPrecision" stroke-miterlimit="1.45">
      <text x="-139.4755" xml:space="preserve" y="325.9277" clip-path="url(#clipPath2)" stroke="none">Controller</text>
      <ellipse rx="83" fill="none" ry="33.5" clip-path="url(#clipPath2)" cx="-87.456" cy="316.5"/>
    </g>
    <g fill="rgb(221,27,22)" text-rendering="geometricPrecision" shape-rendering="geometricPrecision" transform="matrix(1,0,0,1,260,-177)" stroke="rgb(221,27,22)">
      <ellipse rx="52.5" ry="15" clip-path="url(#clipPath2)" cx="-191.556" cy="209" stroke="none"/>
    </g>
    <g font-size="24px" stroke-linecap="butt" transform="matrix(1,0,0,1,260,-177)" text-rendering="geometricPrecision" font-family="sans-serif" shape-rendering="geometricPrecision" stroke-miterlimit="1.45">
      <text x="-217.5658" xml:space="preserve" y="218.4277" clip-path="url(#clipPath2)" stroke="none">View</text>
      <ellipse rx="52.5" fill="none" ry="15" clip-path="url(#clipPath2)" cx="-191.556" cy="209"/>
    </g>
    <g fill="rgb(221,27,22)" text-rendering="geometricPrecision" shape-rendering="geometricPrecision" transform="matrix(1,0,0,1,260,-177)" stroke="rgb(221,27,22)">
      <ellipse rx="52.5" ry="15" clip-path="url(#clipPath2)" cx="-24.612" cy="209" stroke="none"/>
    </g>
    <g font-size="24px" stroke-linecap="butt" transform="matrix(1,0,0,1,260,-177)" text-rendering="geometricPrecision" font-family="sans-serif" shape-rendering="geometricPrecision" stroke-miterlimit="1.45">
      <text x="-50.6218" xml:space="preserve" y="218.4277" clip-path="url(#clipPath2)" stroke="none">View</text>
      <ellipse rx="52.5" fill="none" ry="15" clip-path="url(#clipPath2)" cx="-24.612" cy="209"/>
    </g>
    <g fill="rgb(221,27,22)" text-rendering="geometricPrecision" shape-rendering="geometricPrecision" transform="matrix(1,0,0,1,260,-177)" stroke="rgb(221,27,22)">
      <ellipse rx="52.5" ry="15" clip-path="url(#clipPath2)" cx="176.332" cy="209" stroke="none"/>
    </g>
    <g font-size="24px" stroke-linecap="butt" transform="matrix(1,0,0,1,260,-177)" text-rendering="geometricPrecision" font-family="sans-serif" shape-rendering="geometricPrecision" stroke-miterlimit="1.45">
      <text x="150.3222" xml:space="preserve" y="218.4277" clip-path="url(#clipPath2)" stroke="none">View</text>
      <ellipse rx="52.5" fill="none" ry="15" clip-path="url(#clipPath2)" cx="176.332" cy="209"/>
    </g>
    <g fill="rgb(221,27,22)" text-rendering="geometricPrecision" shape-rendering="geometricPrecision" transform="matrix(1,0,0,1,260,-177)" stroke="rgb(221,27,22)">
      <ellipse rx="52.5" ry="15" clip-path="url(#clipPath2)" cx="338.276" cy="209" stroke="none"/>
    </g>
    <g font-size="24px" stroke-linecap="butt" transform="matrix(1,0,0,1,260,-177)" text-rendering="geometricPrecision" font-family="sans-serif" shape-rendering="geometricPrecision" stroke-miterlimit="1.45">
      <text x="312.2662" xml:space="preserve" y="218.4277" clip-path="url(#clipPath2)" stroke="none">View</text>
      <ellipse rx="52.5" fill="none" ry="15" clip-path="url(#clipPath2)" cx="338.276" cy="209"/>
    </g>
    <g fill="rgb(221,27,22)" text-rendering="geometricPrecision" shape-rendering="geometricPrecision" transform="matrix(1,0,0,1,260,-177)" stroke="rgb(221,27,22)">
      <ellipse rx="52.5" ry="15" clip-path="url(#clipPath2)" cx="544.22" cy="209" stroke="none"/>
    </g>
    <g font-size="24px" stroke-linecap="butt" transform="matrix(1,0,0,1,260,-177)" text-rendering="geometricPrecision" font-family="sans-serif" shape-rendering="geometricPrecision" stroke-miterlimit="1.45">
      <text x="518.2102" xml:space="preserve" y="218.4277" clip-path="url(#clipPath2)" stroke="none">View</text>
      <ellipse rx="52.5" fill="none" ry="15" clip-path="url(#clipPath2)" cx="544.22" cy="209"/>
    </g>
    <g fill="rgb(221,27,22)" text-rendering="geometricPrecision" shape-rendering="geometricPrecision" transform="matrix(1,0,0,1,260,-177)" stroke="rgb(221,27,22)">
      <ellipse rx="52.5" ry="15" clip-path="url(#clipPath2)" cx="703.164" cy="209" stroke="none"/>
    </g>
    <g font-size="24px" stroke-linecap="butt" transform="matrix(1,0,0,1,260,-177)" text-rendering="geometricPrecision" font-family="sans-serif" shape-rendering="geometricPrecision" stroke-miterlimit="1.45">
      <text x="677.1542" xml:space="preserve" y="218.4277" clip-path="url(#clipPath2)" stroke="none">View</text>
      <ellipse rx="52.5" fill="none" ry="15" clip-path="url(#clipPath2)" cx="703.164" cy="209"/>
      <path fill="none" d="M275.944 430.593 L275.944 351 L275.944 350" clip-path="url(#clipPath2)"/>
      <path d="M275.944 350 L270.944 362 L275.944 359 L280.944 362 Z" stroke="none" clip-path="url(#clipPath2)"/>
      <path fill="none" d="M447.3608 498.0956 L581.9507 353.7064" clip-path="url(#clipPath2)"/>
      <path d="M587.4055 347.8544 L575.5659 353.2231 L581.2689 354.4379 L582.8809 360.0416 Z" stroke="none" clip-path="url(#clipPath2)"/>
      <path fill="none" d="M98.6885 503.7166 L-50.9035 353.2631" clip-path="url(#clipPath2)"/>
      <path d="M-56.544 347.59 L-51.6289 359.6249 L-50.1984 353.9722 L-44.5375 352.5742 Z" stroke="none" clip-path="url(#clipPath2)"/>
      <path fill="none" d="M-117.6706 285.2986 L-171.9911 229.2039" clip-path="url(#clipPath2)"/>
      <path d="M-177.5564 223.4569 L-172.8004 235.5556 L-171.2955 229.9222 L-165.6166 228.5991 Z" stroke="none" clip-path="url(#clipPath2)"/>
      <path fill="none" d="M-68.3954 283.8953 L-37.2986 230.7015" clip-path="url(#clipPath2)"/>
      <path d="M-33.2611 223.795 L-43.6338 231.6313 L-37.8033 231.5648 L-35.0008 236.6781 Z" stroke="none" clip-path="url(#clipPath2)"/>
      <path fill="none" d="M246.869 285.1227 L195.2059 229.3685" clip-path="url(#clipPath2)"/>
      <path d="M189.7684 223.5004 L194.2571 235.7009 L195.8856 230.102 L201.5922 228.9041 Z" stroke="none" clip-path="url(#clipPath2)"/>
      <path fill="none" d="M294.8574 283.8813 L325.6826 230.7191" clip-path="url(#clipPath2)"/>
      <path d="M329.6955 223.7983 L319.3507 231.6714 L325.181 231.5842 L328.0016 236.6875 Z" stroke="none" clip-path="url(#clipPath2)"/>
      <path fill="none" d="M594.8568 284.1734 L558.6113 230.3648" clip-path="url(#clipPath2)"/>
      <path d="M554.1419 223.7297 L556.6991 236.4757 L559.17 231.1942 L564.993 230.8889 Z" stroke="none" clip-path="url(#clipPath2)"/>
      <path fill="none" d="M642.2782 284.6393 L686.3806 229.8503" clip-path="url(#clipPath2)"/>
      <path d="M691.397 223.6184 L679.9775 229.831 L685.7536 230.6292 L687.7673 236.1014 Z" stroke="none" clip-path="url(#clipPath2)"/>
    </g>
  </g>
</svg>
